# xmcd CD database file
#
# Track frame offsets:
#	150
#	19530
#	38785
#	54092
#	71337
#	92677
#	111330
#	132870
#	149767
#	172267
#
# Disc length: 2635 seconds
#
# Revision: 2
# Processed by: cddbd v1.5PL3 Copyright (c) Steve Scherf et al.
# Submitted via: CDex 1.50
#
DISCID=880a490a
DTITLE=TUBE - N・A・T・S・U
DYEAR=1990
DGENRE=JPop
TTITLE0=THE SURFIN' IN THE WIND
TTITLE1=90'S DOOR
TTITLE2=FOREVER YOUNG
TTITLE3=MADE IN SUMMER
TTITLE4=あー夏休み
TTITLE5=BEAUTIFUL WORLD
TTITLE6=AUGUST MOON
TTITLE7=N・A・T・S・U
TTITLE8=CHANGE
TTITLE9=KEEP ON SAILIN'
EXTD=YEAR: 1990
EXTT0=
EXTT1=
EXTT2=
EXTT3=
EXTT4=
EXTT5=
EXTT6=
EXTT7=
EXTT8=
EXTT9=
PLAYORDER=
